<svg width="100" height="125" viewBox="0 0 100 125" fill="none" xmlns="http://www.w3.org/2000/svg">
<path d="M54.5303 95.8629H44.9463C44.3943 95.8629 43.9463 95.4159 43.9463 94.8629C43.9463 94.3099 44.3943 93.8629 44.9463 93.8629H54.5303C62.2353 93.8629 68.5043 87.4089 68.5043 79.4749V69.6259C68.5043 61.6919 62.2353 55.2379 54.5303 55.2379C53.9773 55.2379 53.5303 54.7909 53.5303 54.2379C53.5303 53.6849 53.9773 53.2379 54.5303 53.2379C63.3383 53.2379 70.5043 60.5899 70.5043 69.6259V79.4749C70.5043 88.5119 63.3383 95.8629 54.5303 95.8629Z" fill="black"/>
<path d="M50.179 55.2389H42.498C41.946 55.2389 41.498 54.7919 41.498 54.2389C41.498 53.6859 41.946 53.2389 42.498 53.2389H50.179C50.731 53.2389 51.179 53.6859 51.179 54.2389C51.179 54.7919 50.731 55.2389 50.179 55.2389Z" fill="black"/>
<path d="M45.4481 95.8629C36.2951 95.8629 29.7581 93.7079 26.0181 89.4569C23.1341 86.1779 23.1011 82.8689 23.1011 82.7289V61.5889C23.1011 61.2879 23.2341 61.0179 23.4461 60.8339C23.2321 60.6479 23.1011 60.3749 23.1011 60.0779C23.1011 59.9179 23.1231 56.0929 25.0191 50.6499C27.1351 44.5809 29.2151 44.3299 36.8311 44.3299C40.7701 44.3299 43.3871 46.5429 44.9911 49.0499V20.1619C44.9911 19.9209 45.0781 19.6879 45.2361 19.5069C48.0961 16.2119 52.7291 17.9529 54.7781 19.3329C55.0541 19.5189 55.2191 19.8299 55.2191 20.1629V21.4829C60.7051 20.2639 63.1031 23.1239 63.2091 23.2549C63.3531 23.4329 63.4321 23.6549 63.4321 23.8839V25.3959C68.7731 25.9459 70.4031 30.8889 70.5021 33.5749L70.5031 72.9179C70.5031 73.4709 70.0561 73.9179 69.5031 73.9179C68.9501 73.9179 68.5031 73.4709 68.5031 72.9179V33.6109C68.4931 33.3929 68.1691 27.3449 62.4321 27.3449C61.8791 27.3449 61.4321 26.8969 61.4321 26.3449V24.2999C60.7821 23.7509 58.6801 22.4309 54.5191 23.7389C54.2151 23.8339 53.8841 23.7799 53.6271 23.5909C53.3701 23.4019 53.2191 23.1029 53.2191 22.7849V20.7239C52.0741 20.0779 48.9971 18.6419 46.9901 20.5599V54.2389C46.9901 54.7579 46.5941 55.1889 46.0781 55.2339C45.5561 55.2839 45.0961 54.9219 45.0051 54.4119C44.9461 54.0829 43.4931 46.3299 36.8301 46.3299C29.1781 46.3299 28.5291 46.6559 26.9071 51.3079C25.6221 54.9939 25.2511 57.9159 25.1431 59.2659C26.6281 59.5019 29.7421 59.7359 30.4481 57.6319C31.7041 53.8899 31.7801 53.6659 32.7601 53.9219C32.7811 53.9269 32.8021 53.9339 32.8231 53.9409H37.5541C37.9801 53.9409 38.3591 54.2109 38.4991 54.6129C38.6691 55.1029 42.6511 66.6899 41.8611 74.2169C41.3891 78.7109 38.3171 80.5119 35.6741 80.2859C33.1461 80.0699 30.7081 78.0079 30.9411 74.4829C31.1271 71.6709 30.5161 66.5839 28.0711 64.0899C27.2291 63.2319 26.2501 62.7439 25.0981 62.6139V82.7269C25.1031 83.1759 25.4521 93.8609 45.4451 93.8609C45.9971 93.8609 46.4451 94.3079 46.4451 94.8609C46.4451 95.4139 46.0001 95.8629 45.4481 95.8629ZM27.7611 61.3749C28.3881 61.7099 28.9691 62.1479 29.5011 62.6909C32.6261 65.8789 33.1321 71.6869 32.9391 74.6169C32.7841 76.9599 34.3371 78.1659 35.8461 78.2949C37.6161 78.4379 39.5401 77.1789 39.8731 74.0089C40.5131 67.9139 37.6651 58.5179 36.8331 55.9419H33.1501C33.0001 56.3509 32.7521 57.0569 32.3451 58.2699C31.6021 60.4849 29.6231 61.2159 27.7611 61.3749Z" fill="black"/>
<path d="M54.2202 48.4889C53.6672 48.4889 53.2202 48.0409 53.2202 47.4889V22.7839C53.2202 22.2319 53.6672 21.7839 54.2202 21.7839C54.7732 21.7839 55.2202 22.2319 55.2202 22.7839V47.4889C55.2202 48.0419 54.7722 48.4889 54.2202 48.4889Z" fill="black"/>
<path d="M62.4331 34.395C61.8801 34.395 61.4331 33.947 61.4331 33.395V26.345C61.4331 25.793 61.8801 25.345 62.4331 25.345C62.9861 25.345 63.4331 25.793 63.4331 26.345V33.395C63.4331 33.947 62.9851 34.395 62.4331 34.395Z" fill="black"/>
<path d="M62.4331 52.2599C61.8801 52.2599 61.4331 51.8129 61.4331 51.2599V41.0239C61.4331 40.4719 61.8801 40.0239 62.4331 40.0239C62.9861 40.0239 63.4331 40.4719 63.4331 41.0239V51.2599C63.4331 51.8119 62.9851 52.2599 62.4331 52.2599Z" fill="black"/>
<path d="M64.8589 15.804C64.3059 15.804 63.8589 15.356 63.8589 14.804V5.91699C63.8589 5.36499 64.3059 4.91699 64.8589 4.91699C65.4119 4.91699 65.8589 5.36499 65.8589 5.91699V14.804C65.8589 15.356 65.4119 15.804 64.8589 15.804Z" fill="black"/>
<path d="M86.789 29.453H79.147C78.594 29.453 78.147 29.005 78.147 28.453C78.147 27.901 78.594 27.453 79.147 27.453H86.789C87.342 27.453 87.789 27.901 87.789 28.453C87.789 29.005 87.342 29.453 86.789 29.453Z" fill="black"/>
<path d="M75.8868 18.121C75.6358 18.121 75.3838 18.027 75.1898 17.838C74.7938 17.453 74.7858 16.819 75.1698 16.424L86.8308 4.43896C87.2158 4.04296 87.8488 4.03396 88.2448 4.41896C88.6408 4.80396 88.6488 5.43796 88.2648 5.83296L76.6038 17.818C76.4068 18.02 76.1468 18.121 75.8868 18.121Z" fill="black"/>
</svg>
