<svg width="100" height="125" viewBox="0 0 100 125" fill="none" xmlns="http://www.w3.org/2000/svg">
<path d="M95.7701 62.25C95.7694 61.9709 95.7103 61.6951 95.5967 61.4402C95.483 61.1853 95.3173 60.957 95.1101 60.77L86.8401 53.29L74.1701 35.8C73.9818 35.5489 73.737 35.3456 73.4556 35.2066C73.1741 35.0677 72.8639 34.9969 72.5501 35H65.2201L62.6501 26.44C62.5289 26.0246 62.2763 25.6596 61.9301 25.4C61.5839 25.1404 61.1628 25 60.7301 25H53.2101C52.7408 24.991 52.2833 25.1474 51.9176 25.4417C51.552 25.736 51.3015 26.1496 51.2101 26.61L49.5701 35H11.6301C9.78904 34.9998 8.02207 35.725 6.71187 37.0183C5.40168 38.3117 4.65374 40.0691 4.63007 41.91L4.23007 74.28C4.21815 75.2068 4.39041 76.1267 4.73686 76.9864C5.0833 77.8461 5.59703 78.6285 6.24823 79.288C6.89943 79.9476 7.67514 80.4713 8.53033 80.8287C9.38553 81.1861 10.3032 81.3701 11.2301 81.37H14.7601C15.1844 83.8904 16.488 86.1789 18.4395 87.8294C20.391 89.4798 22.8642 90.3854 25.4201 90.3854C27.9759 90.3854 30.4491 89.4798 32.4006 87.8294C34.3522 86.1789 35.6558 83.8904 36.0801 81.37H59.0001C59.4244 83.8904 60.728 86.1789 62.6795 87.8294C64.631 89.4798 67.1042 90.3854 69.6601 90.3854C72.2159 90.3854 74.6891 89.4798 76.6406 87.8294C78.5922 86.1789 79.8958 83.8904 80.3201 81.37H88.7401C90.5966 81.37 92.3771 80.6325 93.6898 79.3197C95.0026 78.007 95.7401 76.2265 95.7401 74.37L95.7701 62.25ZM81.4301 52.63H61.1601C60.6296 52.63 60.1209 52.4193 59.7459 52.0442C59.3708 51.6691 59.1601 51.1604 59.1601 50.63V39H71.5301L81.4301 52.63ZM54.8501 29H59.2501L61.0001 35H53.6501L54.8501 29ZM25.4201 86.34C24.0712 86.34 22.7526 85.94 21.6311 85.1906C20.5095 84.4412 19.6354 83.3761 19.1192 82.1299C18.603 80.8837 18.468 79.5124 18.7311 78.1895C18.9943 76.8665 19.6438 75.6513 20.5976 74.6975C21.5514 73.7437 22.7666 73.0942 24.0896 72.831C25.4125 72.5679 26.7838 72.7029 28.03 73.2191C29.2762 73.7353 30.3413 74.6095 31.0907 75.731C31.8401 76.8526 32.2401 78.1711 32.2401 79.52C32.2374 81.328 31.518 83.0611 30.2396 84.3395C28.9612 85.618 27.228 86.3374 25.4201 86.34V86.34ZM69.7001 86.34C68.3512 86.34 67.0326 85.94 65.9111 85.1906C64.7895 84.4412 63.9154 83.3761 63.3992 82.1299C62.883 80.8837 62.748 79.5124 63.0111 78.1895C63.2743 76.8665 63.9238 75.6513 64.8776 74.6975C65.8314 73.7437 67.0466 73.0942 68.3696 72.831C69.6925 72.5679 71.0638 72.7029 72.31 73.2191C73.5562 73.7353 74.6213 74.6095 75.3707 75.731C76.1201 76.8526 76.5201 78.1711 76.5201 79.52C76.5174 81.328 75.798 83.0611 74.5196 84.3395C73.2412 85.618 71.508 86.3374 69.7001 86.34V86.34ZM91.7801 74.34C91.7801 75.1356 91.464 75.8987 90.9014 76.4613C90.3388 77.0239 89.5757 77.34 88.7801 77.34H80.3001C79.8048 74.8925 78.4782 72.6917 76.5452 71.1108C74.6123 69.5299 72.1921 68.6662 69.6951 68.6662C67.198 68.6662 64.7778 69.5299 62.8449 71.1108C60.912 72.6917 59.5854 74.8925 59.0901 77.34H36.0001C35.5048 74.8925 34.1782 72.6917 32.2453 71.1108C30.3124 69.5299 27.8921 68.6662 25.3951 68.6662C22.898 68.6662 20.4778 69.5299 18.5449 71.1108C16.612 72.6917 15.2854 74.8925 14.7901 77.34H11.2301C10.4344 77.34 9.67136 77.0239 9.10875 76.4613C8.54614 75.8987 8.23007 75.1356 8.23007 74.34L8.63007 41.97C8.63007 41.1744 8.94614 40.4113 9.50875 39.8487C10.0714 39.2861 10.8344 38.97 11.6301 38.97H55.1601V50.63C55.1601 52.2213 55.7922 53.7474 56.9174 54.8726C58.0426 55.9979 59.5688 56.63 61.1601 56.63H84.5801L91.7801 63.14V74.34Z" fill="black"/>
<path d="M35.9703 46.8201H31.9703V52.9901H25.8003V56.9901H31.9703V63.1601H35.9703V56.9901H42.1303V52.9901H35.9703V46.8201Z" fill="black"/>
<path d="M59 18.16V11.66C59 11.1296 58.7893 10.6209 58.4142 10.2458C58.0391 9.87075 57.5304 9.66003 57 9.66003C56.4696 9.66003 55.9609 9.87075 55.5858 10.2458C55.2107 10.6209 55 11.1296 55 11.66V18.16C55 18.6905 55.2107 19.1992 55.5858 19.5742C55.9609 19.9493 56.4696 20.16 57 20.16C57.5304 20.16 58.0391 19.9493 58.4142 19.5742C58.7893 19.1992 59 18.6905 59 18.16Z" fill="black"/>
<path d="M69.44 23.6201L74.33 18.7301C74.7053 18.3548 74.9162 17.8458 74.9162 17.3151C74.9162 16.7843 74.7053 16.2754 74.33 15.9001C73.9548 15.5248 73.4458 15.314 72.915 15.314C72.3843 15.314 71.8753 15.5248 71.5 15.9001L66.61 20.7901C66.4242 20.9759 66.2768 21.1965 66.1763 21.4393C66.0757 21.6821 66.0239 21.9423 66.0239 22.2051C66.0239 22.4679 66.0757 22.7281 66.1763 22.9709C66.2768 23.2137 66.4242 23.4343 66.61 23.6201C66.7959 23.8059 67.0165 23.9533 67.2592 24.0539C67.502 24.1544 67.7622 24.2062 68.025 24.2062C68.2878 24.2062 68.548 24.1544 68.7908 24.0539C69.0336 23.9533 69.2542 23.8059 69.44 23.6201V23.6201Z" fill="black"/>
<path d="M45.91 24.2001C46.3044 24.1984 46.6894 24.0802 47.0168 23.8604C47.3441 23.6405 47.5992 23.3287 47.7499 22.9643C47.9006 22.5999 47.9401 22.1991 47.8637 21.8122C47.7872 21.4254 47.5981 21.0697 47.32 20.7901L42.44 15.9001C42.0648 15.5248 41.5558 15.314 41.025 15.314C40.4943 15.314 39.9853 15.5248 39.61 15.9001C39.2348 16.2754 39.0239 16.7843 39.0239 17.3151C39.0239 17.8458 39.2348 18.3548 39.61 18.7301L44.5 23.6201C44.875 23.992 45.3819 24.2005 45.91 24.2001Z" fill="black"/>
</svg>
