<svg width="15" height="19" viewBox="0 0 15 19" fill="none" xmlns="http://www.w3.org/2000/svg">
<path fill-rule="evenodd" clip-rule="evenodd" d="M12.8062 12.977C14.1636 11.6015 15 9.69799 15 7.6C15 5.50201 14.1636 3.59854 12.8062 2.22303C11.4488 0.847532 9.57038 0 7.5 0C5.42962 0 3.55119 0.847532 2.19378 2.22303C0.83638 3.59854 0 5.50201 0 7.6C0 9.69799 0.83638 11.6015 2.19378 12.977C3.55119 14.3525 5.42962 15.2 7.5 15.2C9.57038 15.2 11.4488 14.3525 12.8062 12.977ZM8.51463 10.5316C8.51463 9.96197 8.06216 9.50347 7.5 9.50347C6.93784 9.50347 6.47166 9.96197 6.47166 10.5316C6.47166 11.1013 6.93784 11.5737 7.5 11.5737C8.06216 11.5737 8.51463 11.1013 8.51463 10.5316ZM7.5 8.46143C7.1298 8.46143 6.85558 8.15576 6.81444 7.76673L6.47166 4.66837C6.41682 4.12651 6.97898 3.62633 7.5 3.62633C8.02102 3.62633 8.58318 4.12651 8.51463 4.66837L8.18556 7.76673C8.14442 8.15576 7.8702 8.46143 7.5 8.46143V8.46143Z" fill="black"/>
</svg>
