<svg width="399" height="495" viewBox="0 0 399 495" fill="none" xmlns="http://www.w3.org/2000/svg">
<g clip-path="url(#clip0)">
<path d="M157 0H22C9.84974 0 0 10.2975 0 23V156C0 168.703 9.84974 179 22 179H157C169.15 179 179 168.703 179 156V23C179 10.2975 169.15 0 157 0Z" fill="black"/>
<path d="M378 0H243C230.85 0 221 10.2975 221 23V156C221 168.703 230.85 179 243 179H378C390.15 179 400 168.703 400 156V23C400 10.2975 390.15 0 378 0Z" fill="black"/>
<path d="M157 218H22C9.84974 218 0 228.297 0 241V374C0 386.703 9.84974 397 22 397H157C169.15 397 179 386.703 179 374V241C179 228.297 169.15 218 157 218Z" fill="black"/>
<path d="M378 218H243C230.85 218 221 228.297 221 241V374C221 386.703 230.85 397 243 397H378C390.15 397 400 386.703 400 374V241C400 228.297 390.15 218 378 218Z" fill="black"/>
</g>
<defs>
<clipPath id="clip0">
<rect width="399" height="495" fill="white"/>
</clipPath>
</defs>
</svg>
