<svg width="100" height="125" viewBox="0 0 100 125" fill="none" xmlns="http://www.w3.org/2000/svg">
<path d="M21.3997 71.3C19.9997 69 18.8997 66.5 17.9997 64C17.6997 63.1 18.2997 62.2 19.1997 62L26.2997 60.7C27.0997 60.6 27.7997 61 28.0997 61.7C30.0997 67.2 34.0997 71.8 39.1997 74.5C39.3997 74.4 39.4997 74.1999 39.6997 74.0999C40.5997 73.2999 41.8997 72.2 43.6997 71.4C36.6997 68.8 31.4997 62 31.4997 54C31.4997 43.8 39.7997 35.5999 49.8997 35.5999C60.0997 35.5999 68.2997 43.9 68.2997 54C68.2997 62 63.1997 68.8 56.0997 71.4C57.8997 72.3 59.1997 73.2999 60.0997 74.0999C60.2997 74.1999 60.4997 74.4 60.5997 74.5C65.6997 71.8 69.6997 67.2999 71.6997 61.7999C71.9997 61.0999 72.6997 60.5999 73.4997 60.7999L80.5997 62.0999C81.4997 62.2999 82.0997 63.1999 81.7997 64.0999C80.9997 66.6999 79.8997 69.1 78.4997 71.4C80.2997 72.2 81.4997 73.2 82.4997 74C86.0997 68.2 88.0997 61.4 88.0997 54C88.0997 32.9 70.8997 15.7 49.7997 15.7C28.6997 15.7 11.6997 32.9 11.6997 54C11.6997 61.3 13.7997 68.1 17.2997 74C18.2997 73.1 19.5997 72.1 21.3997 71.3ZM58.0997 23.3C58.2997 22.4 59.1997 21.8 60.0997 22.1C70.4997 25.4 78.5997 33.6 81.8997 43.9C82.1997 44.8 81.5997 45.7 80.6997 45.9L73.5997 47.2C72.7997 47.3 72.0997 46.9 71.8997 46.2C69.5997 39.7 64.3997 34.6 57.9997 32.2C57.2997 31.9 56.7997 31.2 56.9997 30.5L58.0997 23.3ZM18.0997 43.7999C21.3997 33.4999 29.5997 25.3 39.9997 22C40.8997 21.7 41.7997 22.3 41.9997 23.2L43.2997 30.3C43.3997 31.1 42.9997 31.7999 42.1997 32.0999C35.6997 34.3999 30.5997 39.5 28.1997 46C27.8997 46.7 27.1997 47.2 26.3997 47L19.2997 45.7C18.3997 45.6 17.7997 44.6999 18.0997 43.7999Z" fill="black"/>
<path d="M95.0998 74.7999C91.3998 74.7999 89.4998 76.3999 87.8998 77.6999C86.5998 78.7999 85.6998 79.4999 83.7998 79.4999C81.7998 79.4999 80.9998 78.7999 79.6998 77.6999C78.0998 76.3999 76.1998 74.7999 72.4998 74.7999C68.7998 74.7999 66.8998 76.3999 65.2998 77.6999C63.9998 78.7999 63.0998 79.4999 61.1998 79.4999C59.1998 79.4999 58.3998 78.7999 57.0998 77.6999C55.5998 76.3999 53.5998 74.7999 49.8998 74.7999C46.1998 74.7999 44.2998 76.3999 42.6998 77.6999C41.3998 78.7999 40.4998 79.4999 38.5998 79.4999C36.5998 79.4999 35.7998 78.7999 34.4998 77.6999C32.8998 76.3999 30.9998 74.7999 27.2998 74.7999C23.5998 74.7999 21.6998 76.3999 20.0998 77.6999C18.7998 78.7999 17.8998 79.4999 15.9998 79.4999C13.9998 79.4999 13.1998 78.7999 11.8998 77.6999C10.2998 76.3999 8.3998 74.7999 4.6998 74.7999C3.3998 74.7999 2.2998 75.8999 2.2998 77.1999C2.2998 78.4999 3.3998 79.5999 4.6998 79.5999C6.6998 79.5999 7.4998 80.2999 8.7998 81.3999C10.3998 82.6999 12.2998 84.2999 15.9998 84.2999C19.6998 84.2999 21.5998 82.6999 23.1998 81.3999C24.4998 80.2999 25.3998 79.5999 27.2998 79.5999C29.2998 79.5999 30.0998 80.2999 31.3998 81.3999C32.9998 82.6999 34.8998 84.2999 38.5998 84.2999C42.2998 84.2999 44.1998 82.6999 45.7998 81.3999C47.0998 80.2999 47.9998 79.5999 49.8998 79.5999C51.8998 79.5999 52.6998 80.2999 53.9998 81.3999C55.4998 82.6999 57.4998 84.2999 61.1998 84.2999C64.8998 84.2999 66.7998 82.6999 68.3998 81.3999C69.6998 80.2999 70.5998 79.5999 72.4998 79.5999C74.4998 79.5999 75.2998 80.2999 76.5998 81.3999C78.1998 82.6999 80.0998 84.2999 83.7998 84.2999C87.4998 84.2999 89.3998 82.6999 90.9998 81.3999C92.2998 80.2999 93.1998 79.5999 95.0998 79.5999C96.3998 79.5999 97.4998 78.4999 97.4998 77.1999C97.4998 75.7999 96.3998 74.7999 95.0998 74.7999Z" fill="black"/>
</svg>
