<svg width="100" height="125" viewBox="0 0 100 125" fill="none" xmlns="http://www.w3.org/2000/svg">
<path d="M89.7002 49.5L81.3002 36.7C81.1002 36.3 80.9002 35.8 80.9002 35.3C79.3002 16.6 63.9002 2.5 45.1002 2.5C25.3002 2.5 9.2002 18.6 9.2002 38.5C9.2002 50 14.5002 61.5 23.5002 69.1C23.7002 69.3 24.1002 69.7 24.1002 70.3V89.3C24.1002 92.2 26.3002 94.7 29.2002 94.9L57.8002 97.4C58.0002 97.4 58.1002 97.4 58.3002 97.4C59.7002 97.4 61.1002 96.9 62.1002 95.9C63.3002 94.8 64.0002 93.3 64.0002 91.8V79.5H72.9002H73.0002H78.0002C82.3002 79.5 86.0002 76.5 86.9002 72.3L90.7002 54.6C91.0002 52.9 90.7002 51 89.7002 49.5ZM45.2002 8C61.1002 8 74.2002 20 75.6002 35.8C75.7002 37.1 76.1002 38.3 76.8002 39.6L82.4002 48.1L62.6002 46.4C61.2002 46.3 59.8002 46.6 58.7002 47.3L17.0002 26.9C21.5002 15.8 32.4002 8 45.2002 8ZM14.7002 38.5C14.7002 36.3 14.9002 34.2 15.4002 32.2L55.6002 51.9C55.6002 52.1 55.5002 52.3 55.5002 52.6L54.5002 67.5L24.9002 62.9C18.5002 56.3 14.7002 47.2 14.7002 38.5ZM29.6002 89.3V70.3C29.6002 69.9 29.5002 69.4 29.5002 69L54.0002 72.8V73.4C53.9002 75 54.4002 76.5 55.5002 77.7C56.3002 78.6 57.4002 79.2 58.6002 79.4L58.3002 92L29.6002 89.3ZM81.5002 71.2C81.1002 72.9 79.6002 74.1 77.9002 74.1H59.6002L59.4002 73.8L60.9002 52.9C60.9002 52.5 61.2002 52.2 61.3002 52.1C61.4002 52 61.7002 51.8 62.0002 51.8H62.1002L85.2002 53.8L81.5002 71.2Z" fill="black"/>
<path d="M63.7004 39.4001C66.0752 39.4001 68.0004 37.4749 68.0004 35.1C68.0004 32.7252 66.0752 30.8 63.7004 30.8C61.3256 30.8 59.4004 32.7252 59.4004 35.1C59.4004 37.4749 61.3256 39.4001 63.7004 39.4001Z" fill="black"/>
</svg>
