<svg width="100" height="125" viewBox="0 0 100 125" fill="none" xmlns="http://www.w3.org/2000/svg">
<path d="M79.9551 19.8741C71.7231 11.6901 60.7951 7.30405 49.1851 7.52505L49.3021 13.6771C59.2311 13.4881 68.5761 17.2391 75.6171 24.2371C89.8271 38.3641 89.8971 61.4201 75.7681 75.6301C61.6421 89.8421 38.5871 89.9101 24.3751 75.7831C12.7211 64.1971 10.5861 46.6081 17.9861 32.8141C19.5411 37.3071 21.2161 39.4861 21.2161 39.4861C23.8271 43.2301 26.0811 39.5901 26.0811 39.5901L39.7701 13.0721L10.1571 16.7751C10.1571 16.7751 5.96607 17.6361 8.57906 21.3791C8.57906 21.3791 10.1791 23.9061 14.2161 27.1001C3.65706 43.5821 5.60706 65.8001 20.0391 80.1471C36.6571 96.6671 63.6161 96.5851 80.1341 79.9671C96.6531 63.3511 96.5731 36.3931 79.9551 19.8741Z" fill="black"/>
</svg>
