<svg width="100" height="125" viewBox="0 0 100 125" fill="none" xmlns="http://www.w3.org/2000/svg">
<path d="M50 3.00031C29.5892 3.00031 13 19.5681 13 39.9523C13 60.3367 29.5892 76.9042 50 76.9042C52.1665 76.9042 54.2786 76.7004 56.3438 76.3424C57.1786 78.5582 58.0415 80.8036 58.9375 83.0837C58.0698 86.7251 59.2753 90.6609 61.5 93.1956C63.987 95.9574 67.2551 98.0124 72.5312 96.4723C78.4048 94.951 82.2815 89.2272 80.6562 83.3643C79.8697 80.5272 78.0005 78.0522 75.5937 76.5918C75.4926 76.3431 73.5961 71.6583 72.5937 69.1951C81.3493 62.433 86.9999 51.8429 86.9999 39.952C86.9999 19.5678 70.4107 3 50 3L50 3.00031ZM50 6.99518C68.2491 6.99518 83 21.7269 83 39.9523C83 50.1882 78.3434 59.3158 71.0312 65.3567C69.5544 61.7285 68.8549 60.035 67.4375 56.5558C68.5366 57.3337 69.5778 58.2322 70.5312 59.271C71.243 60.0391 72.5904 60.0911 73.3594 59.3803C74.1284 58.6693 74.1805 57.3238 73.4687 56.5558C68.9664 51.6504 62.9434 49.1978 56.875 48.9095C46.761 48.4287 36.5297 53.97 33.0938 64.2645C32.7583 65.2613 33.3613 66.4729 34.3594 66.808C35.3575 67.1429 36.5708 66.5408 36.9062 65.544C38.7465 60.0306 43.0205 56.1557 48.125 54.2462C50.3894 60.1165 52.5905 66.2074 54.9375 72.5348C53.3264 72.7755 51.6791 72.9094 50 72.9094C31.7509 72.9094 17 58.1778 17 39.9523C17 21.7269 31.7509 6.99518 50 6.99518V6.99518ZM60.7188 26.9377C59.6674 27.0749 58.8421 28.1687 59 29.2159C59.5585 33.6783 61.78 36.9552 65.0937 38.6098C68.4075 40.2646 72.5248 40.4415 77.2187 39.9208C78.3059 39.8688 79.23 38.787 79.1107 37.7065C78.9914 36.6261 77.8537 35.7717 76.7812 35.9572C72.4752 36.435 69.0925 36.1125 66.9062 35.0208C64.72 33.9291 63.4415 32.2437 63 28.7165C62.7626 27.4785 61.828 26.9141 60.7188 26.9377ZM42.8125 28.9355C41.8982 29.0165 41.0969 29.8028 41 30.7143C40.5572 34.2517 39.1879 36.2708 36.9688 37.5804C34.7496 38.89 31.4521 39.4234 27.2188 38.9536C26.1465 38.7686 25.0093 39.623 24.8901 40.7032C24.7709 41.7834 25.6944 42.8646 26.7813 42.9173C31.5479 43.4461 35.7504 42.9813 39.0312 41.0447C42.3121 39.1084 44.4427 35.6658 45 31.2137C45.1772 30.0136 44.0205 28.8089 42.8125 28.9355ZM55.4062 52.9042C57.6445 52.8782 59.9042 53.1813 62.0625 53.8717C64.871 60.7128 72.1562 78.652 72.1562 78.652C72.3407 79.0967 72.692 79.4703 73.125 79.6818C74.4654 80.3298 76.2392 82.4707 76.7812 84.4257C77.8126 88.146 75.5728 91.556 71.5312 92.6027C68.5809 93.3667 66.3681 92.5416 64.5 90.5427C63.1344 88.8396 62.4073 85.7949 62.7812 83.7704C63.0376 83.2746 63.0726 82.6696 62.8749 82.1475C58.8593 71.9743 55.5644 62.416 52.0312 53.2165C53.2038 53.0487 54.3981 52.9195 55.4062 52.9042V52.9042ZM62 58.9276C60 59.9263 60 59.9263 57 60.9251C58.6746 65.1689 64.5073 79.04 66.25 83.6766C65.6963 84.5369 65.645 85.7104 65.9375 86.7664C66.498 88.7903 68.6583 89.9927 70.75 89.4504C72.8418 88.9082 74.0917 86.8239 73.5312 84.8002C73.2337 83.726 72.3401 82.8186 71.4687 82.397C71.4687 82.397 62.8713 61.0352 62 58.9276V58.9276Z" fill="black"/>
</svg>
